<svg width="24" height="24" viewBox="0 0 24 24" fill="none" xmlns="http://www.w3.org/2000/svg">
<path d="M12 24C5.38272 24 0 18.6173 0 12C0 5.38272 5.38272 0 12 0C18.6173 0 24 5.38272 24 12C24 18.6173 18.6173 24 12 24ZM12 1.92C6.4416 1.92 1.92 6.4416 1.92 12C1.92 17.5584 6.4416 22.08 12 22.08C17.5584 22.08 22.08 17.5574 22.08 12C22.08 6.44256 17.5584 1.92 12 1.92Z" fill="black"/>
<path d="M11.9998 18.6663C11.7418 18.6663 11.4943 18.566 11.3118 18.3874C11.1294 18.2088 11.0269 17.9665 11.0269 17.714V6.28539C11.0269 6.0328 11.1294 5.79056 11.3118 5.61195C11.4943 5.43335 11.7418 5.33301 11.9998 5.33301C12.2579 5.33301 12.5054 5.43335 12.6878 5.61195C12.8703 5.79056 12.9728 6.0328 12.9728 6.28539V17.714C12.9728 17.9665 12.8703 18.2088 12.6878 18.3874C12.5054 18.566 12.2579 18.6663 11.9998 18.6663Z" fill="black"/>
<path d="M17.6873 12.8891H6.1506C5.89562 12.8891 5.65109 12.7955 5.47079 12.6288C5.2905 12.4621 5.18921 12.236 5.18921 12.0002C5.18921 11.7645 5.2905 11.5384 5.47079 11.3717C5.65109 11.205 5.89562 11.1113 6.1506 11.1113H17.6873C17.9423 11.1113 18.1868 11.205 18.3671 11.3717C18.5474 11.5384 18.6487 11.7645 18.6487 12.0002C18.6487 12.236 18.5474 12.4621 18.3671 12.6288C18.1868 12.7955 17.9423 12.8891 17.6873 12.8891Z" fill="black"/>
</svg>
