<svg width="39" height="39" viewBox="0 0 39 39" fill="none" xmlns="http://www.w3.org/2000/svg">
<path d="M30.5557 26.7687H16.3688C15.0777 26.7596 13.8272 26.3165 12.8185 25.5107C11.8097 24.7049 11.1012 23.5832 10.807 22.3261L8.54615 13.1357C8.33815 12.2823 8.32748 11.3928 8.51497 10.5347C8.70246 9.67658 9.08317 8.87253 9.62814 8.1837C10.1731 7.49486 10.868 6.93937 11.6599 6.55947C12.4519 6.17957 13.32 5.98527 14.1983 5.99135H32.8505C33.7288 5.98527 34.5969 6.17957 35.3889 6.55947C36.1808 6.93937 36.8757 7.49486 37.4207 8.1837C37.9656 8.87253 38.3463 9.67658 38.5338 10.5347C38.7213 11.3928 38.7106 12.2823 38.5026 13.1357L36.2418 22.3487C35.9365 23.6215 35.2072 24.7525 34.1738 25.5558C33.1404 26.3591 31.8645 26.7869 30.5557 26.7687ZM14.1305 8.81743C13.6837 8.8188 13.2429 8.92124 12.8413 9.1171C12.4397 9.31295 12.0876 9.59714 11.8114 9.94838C11.5352 10.2996 11.3421 10.7088 11.2464 11.1453C11.1508 11.5817 11.1552 12.0342 11.2592 12.4687L13.5201 21.6818C13.6732 22.3274 14.0403 22.9022 14.5616 23.3127C15.0829 23.7232 15.7278 23.9452 16.3914 23.9426H30.5557C31.2192 23.9452 31.8641 23.7232 32.3855 23.3127C32.9068 22.9022 33.2739 22.3274 33.427 21.6818L35.6879 12.4687C35.7942 12.034 35.8002 11.5808 35.7055 11.1434C35.6107 10.706 35.4178 10.2959 35.1411 9.94407C34.8645 9.59227 34.5114 9.30802 34.1087 9.11283C33.706 8.91764 33.2641 8.81663 32.8166 8.81743H14.1305Z" fill="black"/>
<path d="M10.1965 15.5435C9.87368 15.5397 9.56189 15.4254 9.31303 15.2198C9.06416 15.0141 8.89324 14.7294 8.82869 14.4131L6.80521 5.6296C6.61836 4.82946 6.16548 4.11642 5.52068 3.60715C4.87587 3.09787 4.07731 2.82251 3.25565 2.82612H1.41304C1.03828 2.82612 0.678867 2.67725 0.41387 2.41225C0.148874 2.14726 0 1.78784 0 1.41308C0 1.03832 0.148874 0.678907 0.41387 0.41391C0.678867 0.148913 1.03828 3.94149e-05 1.41304 3.94149e-05H3.25565C4.71594 -0.0050619 6.13482 0.485157 7.28051 1.39063C8.4262 2.29609 9.23101 3.5633 9.56347 4.98525L11.5756 13.7687C11.6192 13.9491 11.6265 14.1364 11.5971 14.3197C11.5677 14.5029 11.5022 14.6785 11.4044 14.8363C11.3066 14.994 11.1784 15.1308 11.0274 15.2386C10.8763 15.3464 10.7053 15.4232 10.5243 15.4644C10.4181 15.5021 10.3082 15.5286 10.1965 15.5435ZM16.5835 39C15.6891 39 14.8149 38.7348 14.0713 38.2379C13.3277 37.7411 12.7482 37.0349 12.4059 36.2087C12.0637 35.3824 11.9741 34.4733 12.1486 33.5961C12.3231 32.719 12.7537 31.9133 13.3861 31.2809C14.0185 30.6485 14.8242 30.2179 15.7013 30.0434C16.5784 29.8689 17.4876 29.9585 18.3139 30.3007C19.1401 30.643 19.8463 31.2225 20.3431 31.9661C20.84 32.7097 21.1052 33.584 21.1052 34.4783C21.1052 35.6775 20.6288 36.8276 19.7808 37.6756C18.9328 38.5236 17.7827 39 16.5835 39ZM16.5835 32.7374C16.2436 32.7374 15.9114 32.8382 15.6288 33.027C15.3463 33.2158 15.126 33.4841 14.996 33.7981C14.8659 34.1121 14.8319 34.4576 14.8982 34.7909C14.9645 35.1242 15.1282 35.4303 15.3685 35.6707C15.6088 35.911 15.9149 36.0746 16.2482 36.1409C16.5816 36.2072 16.927 36.1732 17.241 36.0431C17.555 35.9131 17.8233 35.6928 18.0121 35.4103C18.2009 35.1277 18.3017 34.7955 18.3017 34.4557C18.3017 33.9999 18.1207 33.5629 17.7985 33.2407C17.4762 32.9184 17.0392 32.7374 16.5835 32.7374ZM32.2061 39C31.3117 39 30.4375 38.7348 29.6939 38.2379C28.9503 37.7411 28.3708 37.0349 28.0285 36.2087C27.6863 35.3824 27.5967 34.4733 27.7712 33.5961C27.9457 32.719 28.3763 31.9133 29.0087 31.2809C29.6411 30.6485 30.4468 30.2179 31.3239 30.0434C32.201 29.8689 33.1102 29.9585 33.9364 30.3007C34.7627 30.643 35.4689 31.2225 35.9657 31.9661C36.4626 32.7097 36.7278 33.584 36.7278 34.4783C36.7278 35.6775 36.2514 36.8276 35.4034 37.6756C34.5554 38.5236 33.4053 39 32.2061 39ZM32.2061 32.7374C31.8667 32.7396 31.5356 32.8423 31.2545 33.0325C30.9735 33.2226 30.755 33.4917 30.6267 33.8059C30.4984 34.1201 30.4659 34.4652 30.5335 34.7977C30.6011 35.1303 30.7656 35.4354 31.0064 35.6746C31.2471 35.9138 31.5533 36.0763 31.8863 36.1417C32.2193 36.2071 32.5642 36.1724 32.8775 36.042C33.1908 35.9116 33.4585 35.6914 33.6468 35.4091C33.8351 35.1268 33.9356 34.795 33.9356 34.4557C33.9356 34.2291 33.8908 34.0047 33.8037 33.7955C33.7167 33.5863 33.5891 33.3964 33.4284 33.2367C33.2676 33.0769 33.0769 32.9506 32.8671 32.8649C32.6573 32.7793 32.4327 32.7359 32.2061 32.7374Z" fill="black"/>
<path d="M32.206 32.7376H13.373C12.2067 32.7376 11.0882 32.2744 10.2636 31.4497C9.43888 30.625 8.97559 29.5065 8.97559 28.3403C8.97559 27.174 9.43888 26.0555 10.2636 25.2308C11.0882 24.4062 12.2067 23.9429 13.373 23.9429H16.3686C16.7434 23.9429 17.1028 24.0917 17.3678 24.3567C17.6328 24.6217 17.7817 24.9812 17.7817 25.3559C17.7817 25.7307 17.6328 26.0901 17.3678 26.3551C17.1028 26.6201 16.7434 26.769 16.3686 26.769H13.373C12.9562 26.769 12.5566 26.9345 12.2619 27.2292C11.9672 27.5239 11.8017 27.9235 11.8017 28.3403C11.8017 28.757 11.9672 29.1567 12.2619 29.4513C12.5566 29.746 12.9562 29.9116 13.373 29.9116H32.206C32.5808 29.9116 32.9402 30.0604 33.2052 30.3254C33.4702 30.5904 33.619 30.9498 33.619 31.3246C33.619 31.6994 33.4702 32.0588 33.2052 32.3238C32.9402 32.5888 32.5808 32.7376 32.206 32.7376Z" fill="black"/>
</svg>
